<svg width="2913" height="365" viewBox="0 0 2913 365" fill="none" xmlns="http://www.w3.org/2000/svg">
<path d="M269.077 364.513C247.701 364.513 227.494 360.171 208.456 351.487C189.752 342.803 174.555 329.944 162.865 312.91C151.175 295.876 145.33 275.001 145.33 250.285V114.514C145.33 110.172 144.328 106.498 142.324 103.492C140.654 100.152 138.316 97.647 135.31 95.977C132.304 94.307 128.797 93.472 124.789 93.472C120.781 93.472 117.107 94.307 113.767 95.977C110.761 97.647 108.256 100.152 106.252 103.492C104.582 106.498 103.747 110.172 103.747 114.514V358H0.541001V115.516C0.541001 91.134 6.219 70.426 17.575 53.392C29.265 36.358 44.629 23.332 63.667 14.314C82.705 5.29597 103.079 0.78697 124.789 0.78697C146.499 0.78697 166.706 5.29597 185.41 14.314C204.114 23.332 219.311 36.358 231.001 53.392C242.691 70.426 248.536 91.134 248.536 115.516V251.287C248.536 255.629 249.538 259.47 251.542 262.81C253.546 265.816 256.051 268.154 259.057 269.824C262.063 271.494 265.236 272.329 268.576 272.329C272.25 272.329 275.757 271.494 279.097 269.824C282.437 268.154 285.109 265.816 287.113 262.81C289.117 259.47 290.119 255.629 290.119 251.287V115.516C290.119 91.134 295.964 70.426 307.654 53.392C319.344 36.358 334.541 23.332 353.245 14.314C372.283 5.29597 392.49 0.78697 413.866 0.78697C435.242 0.78697 455.282 5.29597 473.986 14.314C492.69 23.332 507.887 36.358 519.577 53.392C531.267 70.426 537.112 91.134 537.112 115.516V358H434.407V113.011C434.407 109.003 433.405 105.663 431.401 102.991C429.397 99.985 426.892 97.647 423.886 95.977C420.88 94.307 417.54 93.472 413.866 93.472C410.192 93.472 406.685 94.307 403.345 95.977C400.005 97.647 397.333 99.985 395.329 102.991C393.659 105.663 392.824 109.003 392.824 113.011V250.285C392.824 275.001 386.812 295.876 374.788 312.91C363.098 329.944 347.901 342.803 329.197 351.487C310.493 360.171 290.453 364.513 269.077 364.513ZM557.813 358L670.037 51.388C676.383 34.688 686.737 22.163 701.099 13.813C715.795 5.12897 732.328 0.78697 750.698 0.78697C769.068 0.78697 785.434 4.96198 799.796 13.312C814.492 21.662 825.013 34.187 831.359 50.887L943.583 358H828.854L809.816 296.878H690.077L670.037 358H557.813ZM712.622 214.213H787.271L754.706 101.488C754.372 100.486 753.871 99.818 753.203 99.484C752.535 98.816 751.7 98.482 750.698 98.482C750.03 98.482 749.362 98.816 748.694 99.484C748.026 99.818 747.525 100.486 747.191 101.488L712.622 214.213ZM958.054 358V7.29998H1066.27V141.568H1107.35C1114.37 141.568 1120.54 139.898 1125.89 136.558C1131.57 133.218 1136.08 128.375 1139.42 122.029C1142.76 115.683 1144.43 108.168 1144.43 99.484V7.29998H1252.64V101.488C1252.64 121.862 1247.63 140.733 1237.61 158.101C1227.93 175.135 1214.9 189.33 1198.53 200.686L1228.59 264.313C1230.26 267.653 1232.6 270.325 1235.61 272.329C1238.61 274.333 1242.12 275.335 1246.13 275.335H1272.68V358H1216.07C1194.69 358 1177.66 354.326 1164.97 346.978C1152.27 339.296 1142.59 328.942 1135.91 315.916L1092.82 225.736C1091.49 225.736 1090.15 225.736 1088.81 225.736C1087.48 225.736 1086.14 225.736 1084.81 225.736H1066.27V358H958.054ZM1289.63 358V273.331H1344.24V91.969H1289.63V7.29998H1507.56V91.969H1452.45V273.331H1507.56V358H1289.63ZM1812.2 364.513C1790.82 364.513 1770.61 360.171 1751.58 351.487C1732.87 342.469 1717.67 329.443 1705.98 312.409C1694.29 295.375 1688.45 274.667 1688.45 250.285V114.514C1688.45 110.172 1687.45 106.498 1685.44 103.492C1683.77 100.152 1681.44 97.647 1678.43 95.977C1675.42 94.307 1671.92 93.472 1667.91 93.472C1663.9 93.472 1660.23 94.307 1656.89 95.977C1653.88 97.647 1651.38 100.152 1649.37 103.492C1647.7 106.498 1646.87 110.172 1646.87 114.514V358H1543.66V115.516C1543.66 91.134 1549.34 70.426 1560.69 53.392C1572.38 36.358 1587.75 23.332 1606.79 14.314C1625.82 5.29597 1646.2 0.78697 1667.91 0.78697C1689.62 0.78697 1709.83 5.29597 1728.53 14.314C1747.23 23.332 1762.43 36.358 1774.12 53.392C1785.81 70.426 1791.66 91.134 1791.66 115.516V251.287C1791.66 255.629 1792.66 259.47 1794.66 262.81C1796.67 266.15 1799.17 268.655 1802.18 270.325C1805.18 271.995 1808.36 272.83 1811.7 272.83C1815.37 272.83 1818.88 271.995 1822.22 270.325C1825.56 268.655 1828.23 266.15 1830.23 262.81C1832.24 259.47 1833.24 255.629 1833.24 251.287V7.29998H1935.94V250.285C1935.94 274.667 1930.1 295.375 1918.41 312.409C1906.72 329.443 1891.35 342.469 1872.32 351.487C1853.61 360.171 1833.57 364.513 1812.2 364.513ZM1957.58 358L2069.8 51.388C2076.15 34.688 2086.5 22.163 2100.87 13.813C2115.56 5.12897 2132.1 0.78697 2150.47 0.78697C2168.84 0.78697 2185.2 4.96198 2199.56 13.312C2214.26 21.662 2224.78 34.187 2231.13 50.887L2343.35 358H2228.62L2209.58 296.878H2089.84L2069.8 358H1957.58ZM2112.39 214.213H2187.04L2154.47 101.488C2154.14 100.486 2153.64 99.818 2152.97 99.484C2152.3 98.816 2151.47 98.482 2150.47 98.482C2149.8 98.482 2149.13 98.816 2148.46 99.484C2147.79 99.818 2147.29 100.486 2146.96 101.488L2112.39 214.213ZM2357.82 358V7.29998H2524.15C2549.54 7.29998 2572.58 12.644 2593.29 23.332C2614 34.02 2630.53 48.883 2642.89 67.921C2655.25 86.625 2661.43 108.335 2661.43 133.051C2661.43 153.425 2656.42 172.63 2646.4 190.666C2636.71 208.368 2623.68 223.064 2607.32 234.754L2626.86 265.315C2629.2 268.655 2631.7 271.16 2634.37 272.83C2637.04 274.5 2641.05 275.335 2646.4 275.335H2671.45V358H2615.33C2597.63 358 2581.77 354.159 2567.74 346.477C2554.05 338.795 2543.52 328.775 2536.18 316.417L2502.61 259.804C2501.27 259.804 2499.94 259.804 2498.6 259.804C2497.27 259.804 2495.93 259.804 2494.59 259.804H2466.04V358H2357.82ZM2466.04 177.139H2513.13C2519.81 177.139 2526.16 175.469 2532.17 172.129C2538.18 168.455 2543.02 163.445 2546.7 157.099C2550.37 150.419 2552.21 142.737 2552.21 134.053C2552.21 125.369 2550.37 118.021 2546.7 112.009C2543.02 105.663 2538.18 100.82 2532.17 97.48C2526.16 93.806 2519.81 91.969 2513.13 91.969H2466.04V177.139ZM2694.78 358V273.331H2749.39V91.969H2694.78V7.29998H2912.71V91.969H2857.6V273.331H2912.71V358H2694.78Z" fill="#F5F5F5"/>
</svg>
